<svg width="22" height="21" viewBox="0 0 22 21" fill="none" xmlns="http://www.w3.org/2000/svg">
<path fill-rule="evenodd" clip-rule="evenodd" d="M21.3376 12.4801V20.3592H16.7366V12.9977C16.7366 11.1573 16.104 9.89207 14.4361 9.89207C13.1709 9.89207 12.4232 10.7548 12.0781 11.5599C11.9631 11.8475 11.9056 12.2501 11.9056 12.6526V20.3592H7.3046C7.3046 20.3592 7.36211 7.87915 7.3046 6.61389H11.9056V8.56929C11.9056 8.56929 11.9056 8.62679 11.8481 8.62679H11.9056V8.56929C12.5382 7.6491 13.5734 6.26881 16.0465 6.26881C19.0371 6.26881 21.3376 8.28173 21.3376 12.4801ZM2.58806 0C1.03522 0 0 1.03522 0 2.35799C0 3.68076 0.977711 4.71599 2.53054 4.71599H2.58806C4.1984 4.71599 5.17611 3.68077 5.17611 2.35799C5.1186 1.03522 4.14089 0 2.58806 0ZM0.230646 20.3593H4.77413V6.61391H0.230646V20.3593Z" fill="#081420"/>
</svg>
