<svg width="22" height="18" viewBox="0 0 22 18" fill="none" xmlns="http://www.w3.org/2000/svg">
<path fill-rule="evenodd" clip-rule="evenodd" d="M21.3371 2.05838C20.5338 2.40982 19.7305 2.66085 18.8268 2.76125C19.7305 2.209 20.4334 1.35552 20.7346 0.351432C19.8811 0.853477 18.9272 1.20491 17.9734 1.40572C17.1701 0.552246 16.0154 0 14.7602 0C12.3504 0 10.3924 1.95797 10.3924 4.36779C10.3924 4.71923 10.4426 5.07065 10.4928 5.37189C6.82787 5.17107 3.61475 3.46411 1.45594 0.803276C1.0543 1.45593 0.853482 2.209 0.853482 3.01227C0.853482 4.51841 1.60656 5.87393 2.81147 6.6772C2.1086 6.6772 1.40574 6.47639 0.803276 6.12495V6.17515C0.803276 8.28375 2.30942 10.0911 4.31762 10.4927C3.96618 10.5931 3.56455 10.6434 3.1629 10.6434C2.86168 10.6434 2.61065 10.5931 2.35963 10.543C2.91188 12.3001 4.51844 13.5552 6.47643 13.6054C4.97028 14.7601 3.1127 15.463 1.0543 15.463C0.702869 15.463 0.351436 15.463 0 15.4128C1.95799 16.6679 4.21721 17.3708 6.72745 17.3708C14.8104 17.3708 19.1783 10.6936 19.1783 4.92004C19.1783 4.71923 19.1783 4.51841 19.1783 4.36779C20.0317 3.71514 20.7848 2.91186 21.3371 2.05838Z" fill="#6C5FBC"/>
</svg>
