<svg xmlns="http://www.w3.org/2000/svg" version="1.1" xmlns:xlink="http://www.w3.org/1999/xlink" width="46" height="43"><svg width="46" height="43" viewBox="0 0 46 43" fill="none" xmlns="http://www.w3.org/2000/svg">
<rect x="3.67383" y="4.97827" width="42.2674" height="37.3367" rx="6.96951" fill="#6C5FBC"></rect>
<rect x="1.0075" y="1.0075" width="40.2524" height="35.3217" rx="5.96201" fill="#DBD9EE" stroke="#6C5FBC" stroke-width="2.01499"></rect>
<path d="M32.624 12.0508L9.72243 11.9495" stroke="#6C5FBC" stroke-width="2.08432" stroke-linecap="round" stroke-linejoin="round"></path>
<path d="M32.6096 16.6363L27.5162 16.6138C25.4095 16.6044 23.7056 14.5424 23.7133 12.0114C23.7211 9.48047 25.4376 7.4335 27.5443 7.44281L32.6377 7.46533" stroke="#6C5FBC" stroke-width="2.08432" stroke-linecap="round" stroke-linejoin="round"></path>
<path d="M17.3611 26.7221L10.7067 26.648C10.1614 26.6456 9.70458 26.1076 9.6942 25.4525L9.64992 23.7254C9.63962 23.0405 10.0999 22.462 10.6699 22.4645L17.25 22.5383L17.3611 26.7221Z" stroke="#6C5FBC" stroke-width="2.08432" stroke-linecap="round" stroke-linejoin="round"></path>
<path d="M27.8134 29.2104L18.4076 29.0943C17.8624 29.0919 17.4055 28.5539 17.3951 27.8988L17.2752 22.5237L32.555 22.7103L32.5653 23.3952C32.6421 26.6412 30.5025 29.252 27.8134 29.2104Z" stroke="#6C5FBC" stroke-width="2.08432" stroke-linecap="round" stroke-linejoin="round"></path>
</svg><style>@media (prefers-color-scheme: light) { :root { filter: none; } }
@media (prefers-color-scheme: dark) { :root { filter: none; } }
</style></svg>